# xmcd
#
# Track frame offsets: 
#        150
#        12006
#        29214
#        42311
#        59161
#        76605
#        90359
#        111192
#        126282
#        140662
#        156160
#        173448
#        187817
#        203986
#        219723
#        240871
#
# Disc length: 3414 seconds
#
# Revision: 0
# Processed by: cddbd v1.5.2PL0 Copyright (c) Steve Scherf et al.
# Submitted via: ExactAudioCopy v1.0b1
#
DISCID=d30d5410
DTITLE=Emesis - Univelka
DYEAR=2011
DGENRE=Hip-Hop
TTITLE0=Univelka
TTITLE1=Musta aamu
TTITLE2=T‰t‰h‰n t‰‰ (feat. Raipati)
TTITLE3=Kriisitilanteita
TTITLE4=Levolle lasken
TTITLE5=Yliannos
TTITLE6=Boomerang Nebula (feat. Huge L)
TTITLE7=Huopaa perkele soua saatana (feat. Davo)
TTITLE8=Jumalasyndrooma
TTITLE9=Lasi
TTITLE10=Tarantella (feat. Jontti)
TTITLE11=Luotuu todentuntust
TTITLE12=Hereille nyt (feat. Laineen Kasperi)
TTITLE13=Min‰ maailma
TTITLE14=Oodi ongelmista
TTITLE15=Oon ku olematon (feat. Eepu)
EXTD=
EXTT0=
EXTT1=
EXTT2=
EXTT3=
EXTT4=
EXTT5=
EXTT6=
EXTT7=
EXTT8=
EXTT9=
EXTT10=
EXTT11=
EXTT12=
EXTT13=
EXTT14=
EXTT15=
PLAYORDER=
